<?xml version="1.0" encoding="UTF-8" standalone="no"?>
<!-- Created with Inkscape (http://www.inkscape.org/) -->

<svg
   width="515.83099"
   height="179.6333"
   viewBox="0 0 515.83099 179.6333"
   version="1.1"
   id="svg1"
   xml:space="preserve"
   inkscape:version="1.4.3 (0d15f75, 2025-12-25)"
   sodipodi:docname="Logo Slengman Engenharia.svg"
   inkscape:export-filename="Meus Documentos\Trabalho\Slengman Engenharia\Logos\Logo Slengman Engenharia Colorida.png"
   inkscape:export-xdpi="96"
   inkscape:export-ydpi="96"
   xmlns:inkscape="http://www.inkscape.org/namespaces/inkscape"
   xmlns:sodipodi="http://sodipodi.sourceforge.net/DTD/sodipodi-0.dtd"
   xmlns="http://www.w3.org/2000/svg"
   xmlns:svg="http://www.w3.org/2000/svg"><sodipodi:namedview
     id="namedview1"
     pagecolor="#ffffff"
     bordercolor="#000000"
     borderopacity="0.25"
     inkscape:showpageshadow="2"
     inkscape:pageopacity="0.0"
     inkscape:pagecheckerboard="0"
     inkscape:deskcolor="#d1d1d1"
     inkscape:document-units="px"
     inkscape:zoom="0.5572609"
     inkscape:cx="136.38136"
     inkscape:cy="368.76802"
     inkscape:window-width="1920"
     inkscape:window-height="1009"
     inkscape:window-x="-8"
     inkscape:window-y="-8"
     inkscape:window-maximized="1"
     inkscape:current-layer="svg1"
     showguides="true"><inkscape:page
       x="0"
       y="0"
       width="515.83099"
       height="179.6333"
       id="page2"
       margin="0"
       bleed="0" /></sodipodi:namedview><defs
     id="defs1" /><g
     id="g10"
     transform="matrix(0.70583311,0,0,0.70583311,78.762024,-573.05956)"
     style="fill:#24221c"><path
       style="display:inline;fill:#24221c;fill-opacity:1;stroke:none;stroke-opacity:1"
       d="m 51.374376,863.34281 c 3.63769,1.23313 13.04792,1.89084 14.47244,5.7234 0.86811,2.33554 -2.47732,5.5795 -3.68341,7.4728 -3.66363,5.75113 -7.03426,16.76741 -15.6844,15.08137 l -4.89538,34.56148 21.67952,-5.02713 -21.67952,62.83905 13.98679,-3.77034 c 2.22904,5.50384 6.07174,10.74165 9.49397,15.70976 1.41644,2.05629 4.09545,4.9822 3.99747,7.5291 -0.12731,3.3086 -5.83945,4.3514 -8.59606,5.2322 -9.85272,3.148 -19.68341,4.2053 -30.0716,4.2053 l -9.79075,28.2776 4.19603,0.6284 c 5.5e-4,4.4483 -0.8543,13.5738 2.21026,17.2652 2.23876,2.6968 11.20924,2.2749 13.15632,-0.4737 2.64707,-3.7367 2.07674,-12.4321 2.11691,-16.7915 3.15896,-0.3587 9.59332,-2.3054 12.23143,-0.2468 4.91767,3.8372 2.70803,16.1274 11.54664,15.1367 1.40822,-0.1579 2.83326,-0.4889 4.19497,-0.8422 10.854338,-2.8171 -0.62536,-13.0186 2.87991,-18.9023 1.13502,-1.9051 4.79785,-2.7896 6.91138,-3.4693 8.943148,-2.8759 9.408088,13.7247 17.486178,12.3725 1.48106,-0.2479 2.903616,-1.0544 4.192806,-1.7164 11.42402,-5.8658 -1.61513,-11.6294 -1.08894,-19.2896 0.15031,-2.1883 2.82873,-3.6384 4.58617,-4.8109 9.10913,-6.0773 13.17786,10.6439 21.67684,6.8774 1.47143,-0.6521 2.78363,-1.7417 3.88845,-2.8132 9.15971,-8.8832 -10.49848,-12.4899 -6.93027,-19.9994 0.54352,-1.1439 1.58865,-2.1681 2.42934,-3.141 7.46732,-8.6415 16.94238,7.5783 23.86065,0.5343 0.89372,-0.9099 1.63113,-2.00129 2.30523,-3.04883 6.04115,-9.38793 -8.78761,-9.43948 -12.27569,-15.82565 -1.50353,-2.75276 2.32156,-7.64008 2.80978,-10.56676 5.22038,0.60578 13.78891,3.96342 18.8417,2.56835 3.58134,-0.9888 6.19132,-9.13291 3.81184,-11.73092 -3.21315,-3.50825 -13.06485,-4.92036 -17.75816,-6.54719 0.73485,-2.74173 0.25563,-8.274 2.51999,-10.30347 4.3093,-3.86228 14.38363,0.93642 18.73755,-3.24717 1.41881,-1.3633 1.12057,-3.58641 1.12132,-5.30107 0.004,-9.49227 -12.65929,-7.84806 -20.98018,-8.16908 l -1.39868,-11.31103 c 7.96491,-1.6557 20.07824,-3.67594 17.77758,-12.56781 -0.45124,-1.74399 -0.83207,-3.96248 -2.66785,-5.00726 -5.2109,-2.9656 -13.72557,3.64746 -19.0133,1.11279 -2.85519,-1.36864 -4.2092,-7.33076 -5.18784,-9.93012 7.71603,-3.27987 18.63487,-8.11433 13.07106,-16.33574 -0.98283,-1.45227 -2.17498,-3.31763 -4.10107,-3.86876 -8.53065,-2.44095 -14.21338,11.10361 -21.81874,1.9807 -0.80163,-0.96159 -1.84682,-1.99291 -2.302,-3.14148 -2.47597,-6.24773 14.0108,-10.58817 9.13352,-17.59493 -0.80285,-1.15338 -1.96156,-2.16633 -3.07743,-3.07358 -5.99973,-4.87806 -10.57642,0.51812 -15.38223,4.15775 -1.76474,1.33652 -4.00818,3.60966 -6.49371,2.53149 -1.18711,-0.51494 -2.25593,-1.41242 -3.29919,-2.12469 -9.917206,-6.77076 4.92715,-11.85222 2.20701,-19.64883 -0.60339,-1.72941 -2.68021,-2.71898 -4.30557,-3.56622 -9.103736,-4.7454 -14.629966,4.92658 -18.180126,11.66983 -2.89451,-1.00876 -10.264788,-2.32229 -11.404198,-5.16823 -1.90598,-4.76064 5.9119,-13.6712 0.69178,-17.55225 -8.07019,-6.00003 -13.17822,-0.10613 -15.49932,6.38234 -4.20527,11.75546 -4.155,24.97161 -6.65722,37.07503 m 28.20346,12.35301 c 3.819858,-1.21983 9.229918,4.52188 11.658888,6.55495 10.076026,8.43374 17.603406,18.98091 21.909926,30.73489 1.13515,3.09818 5.87701,12.81339 1.06468,14.7022 -5.63467,2.21158 -16.141316,0.37952 -22.275266,0.37917 -2.03324,-1.2e-4 -5.39359,0.546 -6.89627,-1.00756 -3.98916,-4.12423 -4.895288,-11.81694 -8.697498,-16.58738 -2.53581,-3.18155 -11.04901,-8.32657 -11.68262,-11.99614 -0.33129,-1.91858 1.62739,-4.06908 2.66732,-5.59879 2.68563,-3.95049 7.2832,-15.59501 12.25084,-17.18134 m -12.81799,97.61533 c 7.35619,-5.03957 12.76982,-12.36944 16.038938,-20.1085 1.22724,-2.90527 1.35028,-10.70437 3.96399,-12.55035 1.59729,-1.12812 4.6821,-0.64575 6.57197,-0.64585 5.82735,-3.4e-4 11.656286,-0.0356 17.483486,4.8e-4 2.43211,0.015 5.52309,-0.0512 6.27463,2.54993 1.06307,3.67932 -0.80419,8.96133 -1.81959,12.53096 -3.38604,11.90358 -9.42356,22.71819 -18.350636,32.04792 -2.60372,2.72115 -9.38576,10.84694 -14.00459,10.04115 -2.57245,-0.44878 -3.819978,-3.8638 -4.976878,-5.64242 -3.81126,-5.85948 -8.58101,-11.84146 -11.18132,-18.22332"
       id="path5"
       sodipodi:nodetypes="csscccccssscccsscsscssssssssssssscsscsscccssscssssssssssscsssccssssssssccsssssssssc" /><path
       style="display:inline;fill:#24221c;fill-opacity:1;stroke:none;stroke-opacity:1"
       d="M 53.472396,811.89105 36.725476,854.6216 14.711946,910.54835 0.32259589,947.62339 22.002116,943.22466 9.2958359,1035.598 l -4.07786,30.7913 h 0.69934 l 13.9862401,-38.3319 21.2214,-58.44034 14.44546,-39.5886 -21.67952,3.77034 14.77732,-88.60305 4.04872,-22.62206 0.75546,-10.68264"
       id="path6"
       sodipodi:nodetypes="ccccccccccccccc" /><text
       xml:space="preserve"
       style="font-size:68.1665px;font-family:'Arial Unicode MS';-inkscape-font-specification:'Arial Unicode MS';writing-mode:lr-tb;direction:ltr;opacity:1;fill:#24221c;fill-opacity:1;stroke:none;stroke-width:3.0326;stroke-opacity:1"
       x="204.11952"
       y="935.39124"
       id="text7"
       transform="scale(1.0023798,0.99762585)"><tspan
         sodipodi:role="line"
         id="tspan7"
         x="204.11952"
         y="935.39124"
         style="font-style:normal;font-variant:normal;font-weight:normal;font-stretch:normal;font-size:68.1665px;font-family:Armstrong;-inkscape-font-specification:Armstrong;fill:#24221c;stroke:none;stroke-width:3.0326;stroke-opacity:1">SLENGMAN</tspan></text><text
       xml:space="preserve"
       style="font-style:normal;font-variant:normal;font-weight:500;font-stretch:normal;font-size:34.3429px;font-family:'LEMON MILK';-inkscape-font-specification:'LEMON MILK Medium';writing-mode:lr-tb;direction:ltr;opacity:1;fill:#24221c;stroke:none;stroke-width:3.0557;stroke-opacity:1"
       x="274.05844"
       y="982.12958"
       id="text9"
       transform="scale(1.0100167,0.99008264)"><tspan
         sodipodi:role="line"
         id="tspan9"
         x="274.05844"
         y="982.12958"
         style="font-style:normal;font-variant:normal;font-weight:bold;font-stretch:normal;font-size:34.3429px;font-family:Armstrong;-inkscape-font-specification:'Armstrong Bold';fill:#24221c;stroke:none;stroke-width:3.0557;stroke-opacity:1">ENGENHARIA</tspan></text><path
       style="fill:#24221c;stroke-width:3.0254"
       d="m 181.94616,965.00344 c 0,0 230.55884,0 0,0 z"
       id="path9" /><rect
       style="fill:#24221c;stroke-width:2.26847"
       id="rect9"
       width="63.16943"
       height="3.2090886"
       x="208.15839"
       y="957.26245" /><rect
       style="fill:#24221c;stroke-width:2.28456"
       id="rect10"
       width="64.068481"
       height="3.2090886"
       x="555.1557"
       y="957.26245" /><text
       xml:space="preserve"
       style="font-style:normal;font-variant:normal;font-weight:bold;font-stretch:normal;font-size:18.8902px;font-family:Nexa;-inkscape-font-specification:'Nexa Bold';writing-mode:lr-tb;direction:ltr;fill:#24221c;stroke-width:3.06951"
       x="301.23804"
       y="1015.4226"
       id="text10"
       transform="scale(1.0145805,0.98562904)"><tspan
         sodipodi:role="line"
         id="tspan10"
         style="font-style:normal;font-variant:normal;font-weight:500;font-stretch:normal;font-size:18.8902px;font-family:'LEMON MILK';-inkscape-font-specification:'LEMON MILK Medium';fill:#24221c;stroke-width:3.06952"
         x="301.23804"
         y="1015.4226">SOLUÇÕES ELÉTRICAS</tspan></text><path
       style="display:inline;fill:#24221c;fill-opacity:1;stroke:none;stroke-opacity:1"
       d="m 1.0219359,829.76028 4.89538,3.14194 h 0.69934 c 1.9535,-1.75028 3.8701401,-3.73405 6.2940501,-4.97087 9.77899,-4.98982 16.73174,7.84943 21.67953,13.13995 9.69111,-16.52566 -25.2035401,-30.65789 -33.5683001,-11.31102 m -4.89484,1.66746 c -10.4415599,2.91108 -4.94304,17.4146 5.58339,14.13393 9.9754801,-3.10898 4.35702,-16.90528 -5.58339,-14.13393 m -4.89591,14.67069 c -4.4296499,7.55358 -5.9738999,16.26172 -7.9895199,24.50722 -3.79722,15.5337 -6.55,31.84495 -6.69661,47.75768 9.79073,-6.19705 8.82111,-14.73772 9.90892,-24.50723 1.76065,-15.81223 8.5362599,-30.39114 11.0712599,-45.8725 l -6.29405,-1.88517 m -44.7577299,72.2649 6.29406,-3.77035 c -7.69042,-13.89092 -19.54968,-25.83767 -23.21527,-41.47377 -3.09014,-13.18145 5.38345,-19.53135 19.71857,-15.89208 4.28275,1.08726 8.5205,2.22156 12.58811,3.86782 6.75754,2.73496 13.04951,6.38689 19.58151,9.5107 2.53349,-8.10085 -3.17375,-9.80568 -10.4901,-13.26603 -10.58789,-5.00767 -27.23185,-11.22623 -39.16301,-6.88611 -10.06342,3.66072 -11.44034,13.53864 -9.84633,22.03731 3.14115,16.74743 14.15013,32.04381 24.53246,45.87251 m 46.1564099,-49.01446 -1.39868,6.91229 21.6795201,13.82459 2.09802,-6.91229 -22.3788601,-13.82459 m 9.79075,27.64918 v 0.62839 c 5.79059,0 8.3685601,-0.15439 9.7907501,-5.65551 l -0.69934,-0.62839 -9.0914101,5.65551 m -15.3854699,3.14195 -0.69934,6.28391 c 8.6224899,-0.005 21.5270299,1.89023 23.0781999,-7.54069 L -12.964854,900.14 m -39.16301,4.39874 4.34281,5.45622 17.33671,-1.95062 5.63789,-1.45848 1.35551,-5.81747 -28.67292,3.77035 m 28.67292,66.60939 -0.69934,-6.9123 c -20.71857,-0.38424 -44.18252,-5.59278 -62.94055,-13.39063 -6.21065,-2.58181 -17.023736,-7.65704 -17.023736,-14.88694 0,-4.81931 5.355266,-8.47659 9.330996,-10.88919 10.39945,-6.31073 23.01729,-9.31429 34.96698,-12.36126 -3.21284,-7.60845 -9.84001,-4.89634 -16.78415,-2.81806 -12.08643,3.61729 -29.231646,9.35323 -33.957356,21.04139 -4.39843,10.87871 6.19806,19.34304 15.774526,24.02285 20.29806,9.91921 48.18415,16.18037 71.33263,16.19414 m -8.39207,-41.47377 v 0.62839 l 5.59471,3.55312 7.89239,-7.32347 20.0811899,-19.4801 c -16.4795799,0.1226 -23.1659699,12.85574 -33.5682899,22.62206 m -16.08157,-13.35815 c -9.69452,3.38523 -3.6884,17.90647 6.28056,14.63336 10.6368,-3.4924 4.70062,-18.46788 -6.28056,-14.63336 m 31.46703,10.21619 c -8.16659,7.33889 -6.99339,13.3894 -6.99339,23.25045 0,16.09399 1.79407,33.38561 6.29405,49.01446 8.1938199,-4.10701 5.26671,-9.13603 4.3045,-16.33815 -1.79153,-13.40957 -2.51842,-26.77882 -3.54256,-40.21699 -0.3556,-4.66603 1.767,-11.49785 -0.0626,-15.70977 m -25.17622,5.65552 c 4.0009,5.43479 10.12952,13.54784 16.78415,16.33815 -0.74069,-5.26626 -1.98719,-18.27193 -10.55269,-18.74893 -1.99194,-0.11092 -4.44095,1.70899 -6.23146,2.41078 m -15.38547,26.3924 c 2.30743,0.165 5.41411,1.22423 7.6296,0.4291 5.47731,-1.96577 11.6918,-11.97953 15.44861,-16.13886 l -4.93045,-4.26879 -5.28768,4.26879 -12.86008,15.70976 m 42.65971,-8.16908 c 0,2.72068 -0.63837,6.21332 0.42198,8.79747 3.00886,7.33281 17.5082599,17.29276 24.75424,21.36528 l 0.27467,-7.54069 -7.9674001,-7.56542 -17.4834899,-15.05664 m 1.39868,15.08137 c 0.006,7.33132 4.1008399,6.9123 11.1894299,6.9123 -3.02709,-3.12651 -6.38497,-6.58686 -11.1894299,-6.9123 m 18.8821699,0.6284 6.2940501,5.02712 c 0.92984,-4.7892 -1.54407,-5.02383 -6.2940501,-5.02712 m -52.4504599,54.66999 -2.09802,-6.2839 c -3.26705,0.5693 -6.44697,1.2236 -9.79076,1.2543 -24.35073,0.2237 -7.83877,-29.21527 -1.88001,-38.95776 1.70572,-2.78882 4.00337,-5.2354 5.37671,-8.16907 -9.78239,-2.27412 -12.01371,4.25533 -15.91159,11.31103 -6.19068,11.20595 -15.8117,35.9084 3.32348,41.6309 7.06496,2.1128 13.95084,0.5175 20.98019,-0.7855 M 9.4140059,983.08755 c -12.59194,8.13494 -25.0976999,18.98365 -39.8623499,23.87885 l 2.79736,6.2839 c 10.71943,-2.7801 28.35048989,-12.4678 35.2470399,-20.39992 1.90679,-2.19311 2.5176601,-7.14372 1.81795,-9.76283 m -18.18282,21.99365 -6.2940599,3.7704 c 2.20263,9.5633 6.3818099,19.7147 11.6000799,28.2775 1.83734,3.0151 3.28237999,6.894 6.58275,8.7976 l 1.00746,-9.426 -7.76019,-17.5949 -5.13604,-13.8246 m -31.4702799,1.619 c -10.47883,2.5895 -6.18521,17.2025 4.1955,14.7483 11.08376,-2.6205 6.63237,-17.4241 -4.1955,-14.7483 z"
       id="path7"
       sodipodi:nodetypes="cccscccsccscsccccssscssscccccccccccccccccccccccssscsssccccccccsccscsscccsccscccccsccccccccccccsscssccccscccsccccsss" /></g></svg>
